<svg id="Laag_1" data-name="Laag 1" xmlns="http://www.w3.org/2000/svg" viewBox="0 0 511.45 511.43"><defs><style>.cls-1{fill:#000057;}</style></defs><path class="cls-1" d="M492.7,42.75a64,64,0,0,1,0,90.55l-56.4,56.4-114-114,56.4-56.4a64.1,64.1,0,0,1,90.6,0ZM44.89,353.2,299.7,98.34l114,114L158.8,467.1a56.74,56.74,0,0,1-24.2,14.3l-104,29.7A22.68,22.68,0,0,1,7,504.1c-6.16-5.3-8.5-14.3-6.11-22.7l29.73-104A55.44,55.44,0,0,1,44.89,353.2ZM249.4,103.4l-146,146L16,161.9a48,48,0,0,1,0-67.84L94.06,16a48,48,0,0,1,67.84,0l19.8,19.76c-.3.29-.7.6-1,.93l-64,64a16,16,0,1,0,22.6,22.6l64-64c.3-.32-.2-.66.9-1ZM453.7,307.8a8.12,8.12,0,0,0-1,.9l-64,64a16,16,0,0,0,22.6,22.6l64-64c.3-1.2-.2-.7.9-1L496,350.1a48,48,0,0,1,0,67.8L417.9,496a48,48,0,0,1-67.8,0l-87.5-87.4,146-146Z" transform="translate(0 -0.57)"/></svg>