<svg id="Laag_1" data-name="Laag 1" xmlns="http://www.w3.org/2000/svg" viewBox="0 0 230.89 29.63"><defs><style>.cls-1{font-size:27.02px;font-family:Swiss721BT-Black, Swis721 Blk BT;font-weight:800;}.cls-1,.cls-3{fill:#000057;}.cls-2{letter-spacing:-0.04em;}</style></defs><text class="cls-1" transform="translate(44.62 23.23)"><tspan class="cls-2">W</tspan><tspan x="25.65" y="0">ebsidesign</tspan></text><polygon class="cls-3" points="0 11.02 5.63 11.02 11.26 22.28 7.5 26.03 0 11.02"/><path class="cls-3" d="M44.8,50.54A11.43,11.43,0,0,1,33.55,62H24.17L18.54,50.74,22.29,47,27,56.37h6.57a5.8,5.8,0,0,0,5.62-5.83" transform="translate(-9.38 -35.97)"/><path class="cls-3" d="M39.17,49.08a5.81,5.81,0,0,0-5.62-5.83H20.63V37.62H33.55A11.44,11.44,0,0,1,44.8,49.08" transform="translate(-9.38 -35.97)"/><polygon class="cls-3" points="25.85 11.02 20.22 11.02 16.47 14.78 18.57 18.97 25.85 11.02"/></svg>