<svg id="Laag_1" data-name="Laag 1" xmlns="http://www.w3.org/2000/svg" viewBox="0 0 133.14 91.62"><defs><style>.cls-1{fill:#fff;}</style></defs><polygon class="cls-1" points="0 35.21 21.15 35.21 42.31 77.52 28.2 91.62 0 35.21"/><path class="cls-1" d="M191.53,52.55c0,23.36-18.94,43.07-42.31,43.07H114L92.81,53.31l14.1-14.1,17.64,35.27h24.67c11.69,0,21.16-10.24,21.16-21.92" transform="translate(-58.39 -4)"/><path class="cls-1" d="M170.38,47.08c0-11.68-9.47-21.93-21.16-21.93H100.7V4h48.52c23.37,0,42.31,19.72,42.31,43.08" transform="translate(-58.39 -4)"/><polygon class="cls-1" points="97.15 35.21 75.99 35.21 61.89 49.31 69.81 65.08 97.15 35.21"/></svg>