<svg id="Laag_1" data-name="Laag 1" xmlns="http://www.w3.org/2000/svg" viewBox="0 0 212.66 39.66"><defs><style>.cls-1{font-size:21.1px;font-family:Swiss721BT-Black, Swis721 Blk BT;font-weight:800;}.cls-1,.cls-3,.cls-4{fill:#000057;}.cls-2{letter-spacing:-0.04em;}.cls-3{font-size:6.44px;font-family:Swiss721BT-Roman, Swis721 BT;}</style></defs><text class="cls-1" transform="translate(65 21)"><tspan class="cls-2">W</tspan><tspan x="20.03" y="0">ebsidesign</tspan></text><text class="cls-3" transform="translate(66.14 35.25)">Het is niet zomaar een website, het is een ervaring!</text><polygon class="cls-4" points="0 15.24 9.16 15.24 18.32 33.56 12.21 39.66 0 15.24"/><path class="cls-4" d="M73,52A18.6,18.6,0,0,1,54.66,70.66H39.4L30.24,52.35l6.11-6.11L44,61.51H54.66A9.45,9.45,0,0,0,63.82,52" transform="translate(-15.34 -31)"/><path class="cls-4" d="M63.82,49.65a9.45,9.45,0,0,0-9.16-9.49h-21V31h21A18.61,18.61,0,0,1,73,49.65" transform="translate(-15.34 -31)"/><polygon class="cls-4" points="42.05 15.24 32.9 15.24 26.79 21.35 30.22 28.17 42.05 15.24"/></svg>