<svg id="Laag_1" data-name="Laag 1" xmlns="http://www.w3.org/2000/svg" viewBox="0 0 146.52 80.11"><defs><style>.cls-1{font-size:17.21px;font-family:Swiss721BT-Black, Swis721 Blk BT;font-weight:800;letter-spacing:-0.04em;}.cls-1,.cls-3,.cls-4{fill:#fff;}.cls-2{letter-spacing:0em;}.cls-3{font-size:6.44px;font-family:Swiss721BT-Roman, Swis721 BT;}</style></defs><text class="cls-1" transform="translate(13.95 65.13)">W<tspan class="cls-2" x="16.33" y="0">ebsidesign</tspan></text><text class="cls-3" transform="translate(0 78.59)">Het is niet zomaar een website, het is een ervaring!</text><polygon class="cls-4" points="41.05 17.04 51.28 17.04 61.52 37.51 54.7 44.34 41.05 17.04"/><path class="cls-4" d="M157.21,31.16c0,11.3-9.16,20.84-20.47,20.84H119.68L109.44,31.53l6.83-6.83,8.53,17.07h11.94A10.56,10.56,0,0,0,147,31.16" transform="translate(-51.74 -7.66)"/><path class="cls-4" d="M147,28.51A10.57,10.57,0,0,0,136.74,17.9H113.26V7.66h23.48c11.31,0,20.47,9.54,20.47,20.85" transform="translate(-51.74 -7.66)"/><polygon class="cls-4" points="88.06 17.04 77.82 17.04 71 23.86 74.83 31.49 88.06 17.04"/></svg>